<?xml version="1.0" standalone="no"?><!DOCTYPE svg PUBLIC "-//W3C//DTD SVG 1.1//EN" "http://www.w3.org/Graphics/SVG/1.1/DTD/svg11.dtd"><svg t="1710873486210" class="icon" viewBox="0 0 1024 1024" version="1.1" xmlns="http://www.w3.org/2000/svg" p-id="12555" xmlns:xlink="http://www.w3.org/1999/xlink" width="200" height="200"><path d="M511.92 553.74s-24.49-115.44 18.17-135.39c42.66-19.95 93.2-92.12 73.66-123.61 0 0 17.35-26.61 32.54 32.34 0 0 61.31-71.23-8.65-99.03 0 0-0.35-56.82 69.2 43.04 0 0 36.47 41.59-77.03 117.47 0 0-95.01 20.14-79.5 158.73l-28.39 6.45z" fill="#FBB03B" p-id="12556"></path><path d="M610.61 536.23s-24.49-115.44 18.17-135.39c42.66-19.95 93.2-92.12 73.66-123.61 0 0 17.35-26.61 32.54 32.34 0 0 61.31-71.23-8.65-99.03 0 0-0.35-56.82 69.2 43.04 0 0 36.47 41.59-77.03 117.47 0 0-95.01 20.14-79.5 158.73l-28.39 6.45z" fill="#FBB03B" p-id="12557"></path><path d="M653.5 400.5s-0.1 0.76-0.31 2.12c0.29-0.76 0.41-1.47 0.31-2.12z" fill="#D4272D" p-id="12558"></path><path d="M700.5 579.5c83-22 86-72 86-72-4 34-122 9-122 9 126-43 58-116 58-116 40 72-119 76-119 76 36.81-3.59 47.82-61.97 49.69-73.88-5.59 14.48-78.69 47.88-78.69 47.88l-30-10c15-31-2-44-2-44 14 14-53 28-46 24s-8-38-8-38c8 23-35 29-35 29 12-6-12-29-12-29 3 28-22 27-22 27-28 22-6 48-6 48 20 25-16 61-16 61-60 36-113-30-155-23s0 98 0 98l184 12c53 19 6 63 6 63-143 14-118 16-168 18-38.59 1.54-8.1 72.56 30 78 70 10 192-17 192-17 47 61 89 31 89 31-50-4-26-42-26-42 52 50 110 17 110 17-48-2-30-42-30-42 49 33 88 0 88 0-33 2-26-31-26-31 67 17 77-10 77-10-35 12-61-41-61-41 73-5 79-21 79-21-31 8-86-29-86-29zM443 469c-10.49 0-19-8.51-19-19s8.51-19 19-19 19 8.51 19 19-8.51 19-19 19z" fill="#D4272D" p-id="12559"></path><path d="M442 450m-8 0a8 8 0 1 0 16 0 8 8 0 1 0-16 0Z" fill="#FBB03B" p-id="12560"></path></svg>